<svg width="196" height="36" viewBox="0 0 196 36" fill="none" xmlns="http://www.w3.org/2000/svg">
<path d="M2.23193 4.06042H31.5249V32.5821H2.23193V4.06042Z" fill="white"/>
<mask id="mask0_2600_971" style="mask-type:luminance" maskUnits="userSpaceOnUse" x="2" y="4" width="30" height="30">
<path fill-rule="evenodd" clip-rule="evenodd" d="M2.23193 4.06042H31.5457V33.338H2.23193V4.06042Z" fill="white"/>
</mask>
<g mask="url(#mask0_2600_971)">
<path fill-rule="evenodd" clip-rule="evenodd" d="M31.5458 4.64974V4.0603H2.21826V4.64974H3.63116C3.63116 4.64974 4.12304 4.67108 4.65804 4.52395C5.19327 4.37659 6.20031 4.35525 6.20031 4.35525H14.2915C14.2915 4.35525 14.7201 4.39816 15.9403 4.46128C17.1599 4.52395 17.5672 4.39816 17.5672 4.39816H21.0566C21.0566 4.39816 21.7418 4.37659 22.3197 4.43948C22.8973 4.50261 23.7538 4.64974 23.7538 4.64974H31.5458Z" fill="#0095CE"/>
<path fill-rule="evenodd" clip-rule="evenodd" d="M31.5458 5.87338V5.17768H25.531C25.531 5.17768 25.231 5.15634 24.6105 5.22014L19.858 5.17768C19.858 5.17768 18.7449 5.40951 18.1458 5.3457C17.5455 5.28281 16.6466 5.17768 16.6466 5.17768C16.6466 5.17768 16.1331 5.13523 15.726 5.17768C15.3202 5.22014 14.7201 5.3457 14.7201 5.3457H6.09308C6.09308 5.3457 5.77162 5.40951 5.3646 5.3457C4.95782 5.28281 4.61561 5.17768 4.61561 5.17768H2.21826V5.87338H4.9373C4.9373 5.87338 5.40819 5.83115 5.75017 5.70445C6.09308 5.57775 6.64929 5.62044 6.64929 5.62044H14.3563C14.3563 5.62044 14.7201 5.62044 14.9556 5.74668C15.1913 5.87338 15.5337 5.87338 15.5337 5.87338H17.8455L19.9223 5.51486H24.5673L25.5522 5.57775C25.5522 5.57775 26.0872 5.55732 26.815 5.7678C27.553 5.98123 28.2065 5.87338 28.2065 5.87338H31.5458Z" fill="#0095CE"/>
<path fill-rule="evenodd" clip-rule="evenodd" d="M31.5458 7.18029V6.42079H28.3995C28.3995 6.42079 28.1855 6.54748 27.5214 6.56883C26.8579 6.58994 20.9925 6.56883 20.9925 6.56883C20.9925 6.56883 20.7998 6.67395 20.3498 6.54748C19.9004 6.42079 19.4939 6.35767 19.4939 6.35767H15.6412L14.5698 6.61106H7.46263C7.46263 6.61106 7.3773 6.67395 6.84138 6.54748C6.30685 6.42079 5.79306 6.42079 5.79306 6.42079H2.21826V7.18029H5.79306C5.79306 7.18029 6.41454 7.15849 6.69264 7.07471C6.97052 6.98979 7.67639 6.92689 7.67639 6.92689H14.5917C14.5917 6.92689 14.8491 6.92689 15.0843 7.05336C15.3202 7.18029 15.9191 7.18029 15.9191 7.18029H19.5584C19.5584 7.18029 20.0074 7.20072 20.3291 7.07471C20.6496 6.94846 21.1634 6.90578 21.1634 6.90578H27.2225C27.2225 6.90578 27.4792 6.84288 27.9074 7.01158C28.3347 7.18029 28.6776 7.18029 28.6776 7.18029H31.5458Z" fill="#0095CE"/>
<path fill-rule="evenodd" clip-rule="evenodd" d="M31.5458 8.78145V7.70703H28.7419C28.7419 7.70703 28.378 7.74904 28.1855 7.95974C27.9925 8.17022 27.4358 8.12822 27.4358 8.12822H21.2065C21.2065 8.12822 20.6496 7.95974 20.2643 7.83305C19.8794 7.70703 19.216 7.70703 19.216 7.70703H15.8976C15.8976 7.70703 15.5976 7.72792 15.2766 7.95974C14.9556 8.19157 14.5271 8.17022 14.5271 8.17022H7.82721C7.82721 8.17022 7.84819 8.25446 7.18452 7.98086C6.52084 7.70703 6.00729 7.70703 6.00729 7.70703H2.21826V8.78145H6.47818C6.47818 8.78145 6.94907 8.82391 7.3125 8.63432C7.67639 8.44473 8.06219 8.46585 8.06219 8.46585H14.5271C14.5271 8.46585 14.9341 8.52874 15.1048 8.65544C15.2766 8.78145 15.9403 8.78145 15.9403 8.78145H19.6652C19.6652 8.78145 20.3498 8.82391 20.6496 8.65544C20.9494 8.48674 21.3138 8.42362 21.3138 8.42362H27.1575C27.1575 8.42362 27.6717 8.44473 27.9074 8.61343C28.1428 8.78145 28.7634 8.78145 28.7634 8.78145H31.5458Z" fill="#0095CE"/>
<path fill-rule="evenodd" clip-rule="evenodd" d="M31.5458 10.4261V9.30835H28.6564C28.6564 9.30835 28.1428 9.30835 27.8426 9.45616C27.5433 9.6042 27.2861 9.6671 26.7724 9.68844C26.2588 9.70933 20.8641 9.68844 20.8641 9.68844C20.8641 9.68844 20.5221 9.68844 20.1578 9.5404C19.7936 9.3935 19.3652 9.30835 19.3652 9.30835H15.7906C15.7906 9.30835 15.3202 9.35104 15.1048 9.47728C14.8913 9.6042 14.249 9.6671 14.249 9.6671H7.97687C7.97687 9.6671 7.82721 9.64598 7.44118 9.47728C7.0563 9.30835 6.73484 9.30835 6.73484 9.30835H2.21826V10.4261H6.62807C6.62807 10.4261 7.0563 10.4893 7.3773 10.1943C7.69807 9.89915 8.19064 10.004 8.19064 10.004C8.19064 10.004 13.6711 9.98293 14.2915 10.004C14.9132 10.0254 15.1481 10.4261 15.8766 10.4261C16.6039 10.4261 17.9744 10.4261 18.7022 10.4261C19.43 10.4261 19.6869 9.98293 20.2643 10.004C20.8426 10.0254 26.4509 10.004 26.4509 10.004C26.4509 10.004 26.9654 10.004 27.1575 10.089C27.3507 10.173 27.9501 10.4261 27.9501 10.4261H31.5458Z" fill="#0095CE"/>
<path fill-rule="evenodd" clip-rule="evenodd" d="M31.5458 12.2806H24.0104C24.0104 12.2806 21.8273 11.9437 20.8212 11.7743C19.8928 11.6192 20.0118 11.5852 18.6164 11.5852C17.3961 11.5852 16.6466 11.9646 16.6466 11.9646C16.6466 11.9646 16.047 12.1333 15.6622 12.0706C15.2766 12.0066 14.8913 11.7116 14.3341 11.6699C13.7784 11.6272 8.6832 11.6478 8.6832 11.6478C8.6832 11.6478 8.01907 11.8172 7.69807 11.9857C7.3773 12.1542 6.82063 12.2806 6.82063 12.2806H2.21826V10.9526H6.45674C6.45674 10.9526 7.44902 11.0239 7.67639 11.1431C8.02622 11.325 8.40487 11.3534 8.40487 11.3534L14.2915 11.3316C14.2915 11.3316 14.7201 11.29 14.977 11.1635C15.2335 11.0373 15.9403 10.9526 15.9403 10.9526H17.6313C17.6313 10.9526 18.3807 10.9742 18.8943 11.1218C19.4083 11.2691 21.3774 11.4378 22.0203 11.6067C22.6201 11.7639 23.7111 11.7954 24.3104 11.6699C24.9098 11.5429 25.3173 11.5641 26.3444 11.1847C27.3724 10.8052 28.4636 10.9526 28.4636 10.9526H31.5458V12.2806Z" fill="#0095CE"/>
<path fill-rule="evenodd" clip-rule="evenodd" d="M31.5458 14.3249V12.7866H24.3319C24.3319 12.7866 21.7849 13.3767 21.0995 13.3767C20.4142 13.3767 19.0765 13.5286 18.4453 13.2498C17.4888 12.8286 16.5468 12.8713 16.5468 12.8713C16.5468 12.8713 15.0921 13.0352 14.5917 13.1658C14.1061 13.2925 13.7352 13.2298 13.7352 13.2298L8.31931 13.2498C8.31931 13.2498 7.86964 13.1238 7.39921 12.9549C6.92786 12.7866 6.47818 12.7866 6.47818 12.7866H2.21826V14.3249H5.62196C5.62196 14.3249 6.79941 14.3674 7.2703 14.0722C7.74142 13.7773 8.53377 13.7564 8.53377 13.7564H13.7567C13.7567 13.7564 14.5698 13.7773 14.998 13.9882C15.4265 14.1984 16.2184 14.3249 16.2184 14.3249H17.9959C17.9959 14.3249 19.3652 14.1571 19.7291 13.9251C20.0934 13.6933 21.6779 13.5668 21.6779 13.5668C21.6779 13.5668 23.9253 13.2298 24.5035 13.2712C25.0818 13.3136 26.7724 13.4399 27.3076 13.7346C27.8426 14.0302 28.7419 14.3249 29.1483 14.3249C29.5557 14.3249 31.5458 14.3249 31.5458 14.3249Z" fill="#0095CE"/>
<path fill-rule="evenodd" clip-rule="evenodd" d="M31.5458 16.707V14.8522H30.0266C30.0266 14.8522 29.3842 14.8937 28.4419 15.2734C27.5001 15.6528 27.2006 15.4421 27.2006 15.463C27.2006 15.4838 22.4262 15.463 22.4262 15.463C22.4262 15.463 21.2709 15.4838 20.5424 15.1682C19.8148 14.8522 18.5521 14.8522 18.5521 14.8522H16.347C16.347 14.8522 15.5791 14.9875 14.5271 15.2942C13.4929 15.5962 13.0075 15.505 13.0075 15.505H8.94033C8.94033 15.505 8.59742 15.5261 7.95496 15.1891C7.3125 14.8522 6.79941 14.8522 6.79941 14.8522H2.21826V16.707H5.32194C5.32194 16.707 6.52084 16.6645 7.24863 16.222C7.97687 15.7797 8.8331 15.9266 8.8331 15.9266L12.9 15.9057C12.9 15.9057 14.3318 16.1455 14.6339 16.2851C15.0907 16.4961 15.726 16.707 15.726 16.707H19.1516C19.1516 16.707 19.8148 16.8335 20.8641 16.3062C21.9131 15.7797 22.6835 15.9266 22.6835 15.9266L27.2006 15.8848C27.2006 15.8848 28.9988 15.9475 29.3842 16.1586C29.7695 16.3696 30.3045 16.5165 30.3045 16.5165C30.3045 16.5165 31.0325 16.8335 31.5458 16.707Z" fill="#0095CE"/>
<path fill-rule="evenodd" clip-rule="evenodd" d="M31.5458 19.3423V17.2341C31.5458 17.2341 30.5828 17.107 30.3472 17.2341C30.1119 17.3601 29.2988 17.7818 27.3507 17.9718C25.4017 18.1614 23.2402 17.9294 23.2402 17.9294C23.2402 17.9294 22.2982 17.9078 21.5059 17.4866C20.714 17.0656 19.7079 17.2341 19.7079 17.2341H16.6039C16.6039 17.2341 15.726 17.2975 14.8913 17.5291C14.0562 17.7607 13.8418 17.9294 13.0289 17.9294C12.2153 17.9294 9.41145 17.9507 9.41145 17.9507C9.41145 17.9507 8.27619 17.9718 7.48407 17.6346C6.69264 17.2975 5.85763 17.2341 5.85763 17.2341H2.21826V19.3423C2.21826 19.3423 4.29461 19.3203 4.53028 19.3423C4.76527 19.363 5.92174 19.2152 6.67097 18.8785C7.42019 18.5408 8.6832 18.5408 8.6832 18.5408L12.7081 18.4564C12.7081 18.4564 14.1206 18.4146 14.8913 18.8785C15.6622 19.3423 16.6254 19.3423 16.6254 19.3423H18.8302C18.8302 19.3423 20.3718 19.363 21.549 18.8785C22.7267 18.3932 23.7538 18.4775 23.7538 18.4775L25.7021 18.4146C25.7021 18.4146 27.6929 18.3721 28.3135 18.6464C28.9345 18.9202 29.448 19.3203 30.2402 19.3423C31.0325 19.363 31.5458 19.3423 31.5458 19.3423Z" fill="#0095CE"/>
<path fill-rule="evenodd" clip-rule="evenodd" d="M2.21826 22.8199C2.21826 22.8199 4.05686 22.5357 6.30685 21.9978C8.51164 21.4712 10.5453 21.4072 10.9097 21.4072C11.2733 21.4072 13.821 21.3448 14.4204 21.7657C15.0192 22.1876 15.747 22.883 17.2462 22.8199C18.7449 22.7566 19.4083 21.3863 21.6343 21.4497C23.861 21.513 24.9312 21.5341 26.3868 22.0189C27.8426 22.5034 29.9189 22.693 31.5458 22.693V19.8691C31.5458 19.8691 30.8395 19.6582 28.7634 20.6277C26.6863 21.5977 24.6743 21.1125 24.6743 21.1125C24.6743 21.1125 22.2341 21.0491 21.4634 20.7542C20.6928 20.4586 20.0293 19.8478 19.237 19.8691C18.4453 19.8902 15.7692 19.9534 14.8055 20.5226C13.8418 21.0914 12.7723 20.8593 12.7723 20.8593H11.744C11.744 20.8593 9.77488 20.9653 9.00443 21.0282C8.23376 21.0914 6.84138 20.9438 5.53617 20.2696C4.23073 19.5953 2.58215 20.0376 2.21826 19.8691V22.8199Z" fill="#0095CE"/>
<path fill-rule="evenodd" clip-rule="evenodd" d="M31.5458 23.3886V33.3377H2.21826V23.3886C2.21826 23.3886 2.88147 23.2413 3.24537 23.3886C3.60972 23.5365 3.82395 23.7683 3.82395 23.7683C3.82395 23.7683 4.76527 24.59 6.30685 24.738C7.84819 24.8849 10.1602 24.6745 10.1602 24.6745C10.1602 24.6745 12.4079 24.3577 13.5425 24.1261C14.6775 23.8945 15.8114 23.8525 16.8606 24.211C17.9103 24.5689 18.1022 25.0754 20.7783 24.8645C23.4545 24.6531 24.3752 23.3673 26.3019 23.1775C28.2279 22.9883 30.2618 23.1566 31.5458 23.3886Z" fill="#0095CE"/>
</g>
<path fill-rule="evenodd" clip-rule="evenodd" d="M42.9359 10.7492C42.6352 10.5141 42.3061 10.4047 41.748 10.3731C41.4906 10.3577 41.3473 10.3577 41.1328 10.3577C41.0756 10.3577 41.0469 10.389 41.0469 10.4672V14.1796C41.0469 15.2133 41.0899 15.4796 41.5478 15.6832C41.934 15.8555 42.2633 15.8713 42.5923 15.8713C43.2363 15.8713 44.3237 15.4953 44.3237 13.8663C44.3237 12.8952 44.0232 11.5793 42.9359 10.7492ZM41.0469 9.49596C41.0469 9.62132 41.0899 9.6526 41.1471 9.66824C41.2759 9.69952 41.4906 9.71539 41.8197 9.71539C42.2918 9.71539 42.6066 9.6526 42.8499 9.41776C43.2218 9.08861 43.4366 8.52485 43.4366 7.7573C43.4366 6.70776 42.8785 5.3293 41.648 5.3293C41.4476 5.3293 41.3188 5.3293 41.1757 5.36058C41.0756 5.39209 41.0469 5.45465 41.0469 5.62693V9.49596ZM39.33 9.22927C39.33 6.84842 39.33 6.40978 39.3014 5.90859C39.2728 5.37611 39.1583 5.1254 38.6862 5.01568C38.5717 4.9844 38.3283 4.96876 38.1281 4.96876C37.9707 4.96876 37.8848 4.93748 37.8848 4.82776C37.8848 4.71805 37.985 4.68677 38.1997 4.68677C38.9581 4.68677 39.8595 4.73369 40.1457 4.73369C40.8469 4.73369 41.405 4.68677 41.8914 4.68677C44.4816 4.68677 44.9394 6.20622 44.9394 7.03634C44.9394 8.32095 44.2668 9.08827 43.4797 9.77762C44.653 10.216 46.084 11.3284 46.084 13.1609C46.084 14.837 44.8964 16.5756 42.2635 16.5756C42.0916 16.5756 41.6769 16.5443 41.2619 16.5287C40.8326 16.4972 40.4033 16.4818 40.1886 16.4818C40.0312 16.4818 39.7164 16.4818 39.3731 16.4972C39.044 16.4972 38.6719 16.5287 38.3857 16.5287C38.1997 16.5287 38.0995 16.4818 38.0995 16.3721C38.0995 16.2936 38.1567 16.2467 38.3283 16.2467C38.5431 16.2467 38.7148 16.2154 38.8436 16.1841C39.1297 16.1213 39.2014 15.7768 39.2585 15.3225C39.33 14.6647 39.33 13.4272 39.33 11.9862V9.22927Z" fill="#121212"/>
<path fill-rule="evenodd" clip-rule="evenodd" d="M52.8942 12.501C52.9546 12.501 52.9697 12.47 52.9546 12.4232L51.7045 9.1106C51.6897 9.06401 51.6744 8.98613 51.6444 8.98613C51.5993 8.98613 51.5842 9.06401 51.5692 9.1106L50.289 12.4076C50.2589 12.47 50.289 12.501 50.3343 12.501H52.8942ZM50.0631 13.2319C49.9877 13.2319 49.9726 13.2475 49.9426 13.3253L49.2347 15.1137C49.0991 15.4403 49.039 15.7671 49.039 15.9226C49.039 16.1558 49.1595 16.2958 49.5662 16.2958H49.7619C49.9275 16.2958 49.9576 16.3579 49.9576 16.4358C49.9576 16.5445 49.8824 16.5758 49.7466 16.5758C49.3101 16.5758 48.6927 16.5292 48.271 16.5292C48.1354 16.5292 47.4275 16.5758 46.7349 16.5758C46.5693 16.5758 46.4939 16.5445 46.4939 16.4358C46.4939 16.3579 46.5392 16.2958 46.6445 16.2958C46.765 16.2958 46.9156 16.2803 47.0361 16.2803C47.6385 16.1869 47.8643 15.7826 48.1354 15.1137L51.5991 6.85547C51.7497 6.48231 51.8552 6.32678 51.9905 6.32678C52.1865 6.32678 52.2466 6.45125 52.3822 6.74676C52.6984 7.47756 54.9122 12.8275 55.7554 14.834C56.2676 16.0313 56.644 16.2024 56.885 16.2492C57.0807 16.2803 57.2313 16.2958 57.3819 16.2958C57.5024 16.2958 57.5628 16.3424 57.5628 16.4358C57.5628 16.5445 57.4874 16.5758 56.9905 16.5758C56.5235 16.5758 55.5597 16.5758 54.4454 16.5445C54.2044 16.5292 54.0538 16.5292 54.0538 16.4358C54.0538 16.3579 54.0839 16.3113 54.2196 16.2958C54.3099 16.2803 54.4001 16.1558 54.3399 16.0003L53.3161 13.3253C53.2858 13.2475 53.2406 13.2319 53.1803 13.2319H50.0631Z" fill="#121212"/>
<path fill-rule="evenodd" clip-rule="evenodd" d="M66.0213 10.7418C66.0523 10.7418 66.0988 10.7259 66.0988 10.6464V10.3594C66.0988 8.30318 66.0835 7.80908 66.0678 7.37865C66.0368 6.91638 65.9126 6.7729 65.4782 6.64534C65.3695 6.61351 65.1366 6.59759 64.9504 6.59759C64.7952 6.59759 64.7177 6.54984 64.7177 6.45411C64.7177 6.35861 64.8107 6.32678 65.0126 6.32678C65.7419 6.32678 66.7041 6.35861 67.0613 6.35861C67.3872 6.35861 68.2874 6.32678 68.815 6.32678C69.0167 6.32678 69.1099 6.35861 69.1099 6.45411C69.1099 6.54984 69.0167 6.59759 68.8615 6.59759C68.753 6.59759 68.6288 6.61351 68.4581 6.64534C68.101 6.70924 67.9925 6.90046 67.9613 7.37865C67.9303 7.80908 67.9303 8.19154 67.9303 10.2477V12.6387C67.9303 13.882 67.9303 14.95 67.9925 15.5396C68.039 15.9223 68.1167 16.1772 68.5358 16.2411C68.7218 16.2729 69.0167 16.2888 69.2341 16.2888C69.3736 16.2888 69.4513 16.3684 69.4513 16.4323C69.4513 16.528 69.3429 16.5758 69.1722 16.5758C68.2874 16.5758 67.3872 16.528 67.0148 16.528C66.7041 16.528 65.7419 16.5758 65.2141 16.5758C65.0281 16.5758 64.9192 16.528 64.9192 16.4323C64.9192 16.3684 64.9814 16.2888 65.1366 16.2888C65.354 16.2888 65.509 16.2729 65.6332 16.2411C65.9126 16.1772 65.9903 15.9223 66.0368 15.5237C66.0988 14.95 66.0988 13.9138 66.0988 12.6707V11.6346C66.0988 11.5868 66.0523 11.5547 66.0213 11.5547H60.8685C60.822 11.5547 60.7753 11.5707 60.7753 11.6346V12.6707C60.7753 13.9138 60.7908 14.95 60.853 15.5396C60.8995 15.9223 60.9773 16.1772 61.3806 16.2411C61.5669 16.2729 61.8775 16.2888 62.079 16.2888C62.2342 16.2888 62.2964 16.3684 62.2964 16.4323C62.2964 16.528 62.1877 16.5758 62.017 16.5758C61.1322 16.5758 60.1855 16.528 59.7976 16.528C59.487 16.528 58.5869 16.5758 58.0436 16.5758C57.8729 16.5758 57.7797 16.528 57.7797 16.4323C57.7797 16.3684 57.8264 16.2888 57.9971 16.2888C58.1988 16.2888 58.3543 16.2729 58.4782 16.2411C58.7577 16.1772 58.8351 15.9223 58.8819 15.5237C58.9441 14.95 58.9441 13.882 58.9441 12.6387V10.2477C58.9441 8.19154 58.9441 7.80908 58.9284 7.37865C58.8974 6.91638 58.7731 6.7729 58.3385 6.64534C58.23 6.61351 57.9971 6.59759 57.7954 6.59759C57.6557 6.59759 57.5625 6.54984 57.5625 6.45411C57.5625 6.35861 57.6712 6.32678 57.8574 6.32678C58.5869 6.32678 59.487 6.35861 59.8596 6.35861C60.1855 6.35861 61.1322 6.32678 61.6756 6.32678C61.8618 6.32678 61.955 6.35861 61.955 6.45411C61.955 6.54984 61.8775 6.59759 61.7066 6.59759C61.5978 6.59759 61.4736 6.61351 61.3187 6.64534C60.946 6.70924 60.8373 6.90046 60.8063 7.37865C60.7753 7.80908 60.7753 8.30318 60.7753 10.3594V10.6464C60.7753 10.7259 60.822 10.7418 60.8685 10.7418H66.0213Z" fill="#121212"/>
<path fill-rule="evenodd" clip-rule="evenodd" d="M71.0626 7.62744C70.8954 7.14165 70.7889 6.82822 70.5912 6.7028C70.4546 6.60868 70.1961 6.59303 70.0747 6.59303C69.9379 6.59303 69.8618 6.54609 69.8618 6.45197C69.8618 6.35808 69.9681 6.32678 70.1658 6.32678C70.8499 6.32678 71.5946 6.35808 71.7163 6.35808C71.8377 6.35808 72.4912 6.32678 73.2665 6.32678C73.464 6.32678 73.5553 6.35808 73.5553 6.45197C73.5553 6.54609 73.4488 6.59303 73.312 6.59303C73.2056 6.59303 73.0839 6.60868 72.9777 6.65586C72.8561 6.7028 72.8409 6.78128 72.8409 6.92211C72.8409 7.09447 72.9625 7.53332 73.1297 8.14453C73.3576 9.02222 74.5735 13.0496 74.771 13.6608H74.8167L77.3702 6.84387C77.507 6.46762 77.6436 6.35808 77.7652 6.35808C77.9172 6.35808 78.0389 6.56174 78.206 6.98494L80.8811 13.5669H80.9266C81.1849 12.799 82.2035 9.2887 82.6744 7.73698C82.7657 7.42378 82.8112 7.1573 82.8112 6.96929C82.8112 6.74975 82.6896 6.59303 82.1577 6.59303C82.0361 6.59303 81.9296 6.53044 81.9296 6.45197C81.9296 6.35808 82.0361 6.32678 82.249 6.32678C82.9483 6.32678 83.556 6.35808 83.6776 6.35808C83.7687 6.35808 84.3463 6.32678 84.7871 6.32678C84.9393 6.32678 85.0303 6.35808 85.0303 6.43632C85.0303 6.53044 84.9694 6.59303 84.8478 6.59303C84.7112 6.59303 84.5288 6.60868 84.3769 6.65586C84.0575 6.78128 83.9057 7.28271 83.6321 8.05064C83.0087 9.72732 81.6408 13.9586 80.9876 15.9489C80.8354 16.4191 80.7595 16.5758 80.5617 16.5758C80.3794 16.5758 80.2883 16.4191 80.0906 15.9333L77.3702 9.35129H77.3398C77.1117 9.91533 75.3182 14.6483 74.771 15.8705C74.5279 16.4191 74.4518 16.5758 74.2543 16.5758C74.0871 16.5758 74.0113 16.4347 73.8896 16.09L71.0626 7.62744Z" fill="#121212"/>
<path fill-rule="evenodd" clip-rule="evenodd" d="M90.2011 12.501C90.2613 12.501 90.2763 12.47 90.2613 12.4232L89.0114 9.1106C88.9961 9.06401 88.9811 8.98613 88.951 8.98613C88.9059 8.98613 88.8908 9.06401 88.8758 9.1106L87.5956 12.4076C87.5655 12.47 87.5956 12.501 87.6409 12.501H90.2011ZM87.3696 13.2319C87.2941 13.2319 87.2791 13.2475 87.249 13.3253L86.5412 15.1137C86.4058 15.4403 86.3454 15.7671 86.3454 15.9226C86.3454 16.1558 86.466 16.2958 86.8724 16.2958H87.0684C87.234 16.2958 87.2641 16.3579 87.2641 16.4358C87.2641 16.5445 87.1889 16.5758 87.0531 16.5758C86.6166 16.5758 85.9991 16.5292 85.5772 16.5292C85.4418 16.5292 84.734 16.5758 84.0411 16.5758C83.8755 16.5758 83.8003 16.5445 83.8003 16.4358C83.8003 16.3579 83.8454 16.2958 83.9509 16.2958C84.0714 16.2958 84.222 16.2803 84.3423 16.2803C84.9447 16.1869 85.1707 15.7826 85.4418 15.1137L88.9056 6.85547C89.0562 6.48231 89.1615 6.32678 89.2973 6.32678C89.493 6.32678 89.5531 6.45125 89.6887 6.74676C90.0049 7.47756 92.2188 12.8275 93.062 14.834C93.5742 16.0313 93.9508 16.2024 94.1916 16.2492C94.3873 16.2803 94.5379 16.2958 94.6888 16.2958C94.8091 16.2958 94.8692 16.3424 94.8692 16.4358C94.8692 16.5445 94.794 16.5758 94.2969 16.5758C93.8303 16.5758 92.8663 16.5758 91.7517 16.5445C91.5111 16.5292 91.3603 16.5292 91.3603 16.4358C91.3603 16.3579 91.3906 16.3113 91.526 16.2958C91.6164 16.2803 91.7066 16.1558 91.6465 16.0003L90.6224 13.3253C90.5923 13.2475 90.5472 13.2319 90.487 13.2319H87.3696Z" fill="#121212"/>
<path fill-rule="evenodd" clip-rule="evenodd" d="M97.7906 15.4628C97.8226 16.4755 97.9974 16.7824 98.2674 16.8743C98.506 16.9511 98.7762 16.9665 98.9987 16.9665C99.1576 16.9665 99.237 17.0277 99.237 17.1046C99.237 17.2118 99.1098 17.2427 98.9191 17.2427C98.013 17.2427 97.3614 17.1967 97.1072 17.1967C96.98 17.1967 96.3125 17.2427 95.5974 17.2427C95.4065 17.2427 95.2793 17.2274 95.2793 17.1046C95.2793 17.0277 95.375 16.9665 95.5017 16.9665C95.6926 16.9665 95.947 16.9511 96.1377 16.9052C96.5032 16.813 96.5511 16.4602 96.5669 15.3247L96.6939 7.59206C96.6939 7.33116 96.7894 7.14709 96.9322 7.14709C97.1072 7.14709 97.2979 7.34648 97.5362 7.57674C97.711 7.74548 99.8092 9.81687 101.843 11.7346C102.797 12.6398 104.657 14.481 104.864 14.665H104.927L104.784 8.86544C104.768 8.06766 104.641 7.83741 104.307 7.71484C104.101 7.63802 103.767 7.63802 103.576 7.63802C103.401 7.63802 103.354 7.57674 103.354 7.49991C103.354 7.39244 103.497 7.37735 103.703 7.37735C104.434 7.37735 105.181 7.40799 105.484 7.40799C105.642 7.40799 106.167 7.37735 106.85 7.37735C107.041 7.37735 107.168 7.39244 107.168 7.49991C107.168 7.57674 107.089 7.63802 106.93 7.63802C106.787 7.63802 106.675 7.63802 106.501 7.68398C106.119 7.79145 106.008 8.0217 105.992 8.75797L105.833 16.9818C105.833 17.2733 105.722 17.3961 105.61 17.3961C105.372 17.3961 105.181 17.258 105.038 17.1199C104.164 16.3374 102.416 14.7265 100.954 13.361C99.4279 11.9493 97.9496 10.3691 97.6795 10.1388H97.6317L97.7906 15.4628Z" fill="#121212"/>
<path fill-rule="evenodd" clip-rule="evenodd" d="M38.6296 31.7313C37.0687 30.4273 36.6548 28.7289 36.6548 27.2579C36.6548 26.2268 36.9892 24.4374 38.518 23.1028C39.6647 22.1019 41.1779 21.4955 43.551 21.4955C44.5384 21.4955 45.1277 21.5561 45.8602 21.6469C46.4655 21.7228 46.9751 21.8591 47.4529 21.9048C47.6281 21.9199 47.6919 21.9959 47.6919 22.0867C47.6919 22.2081 47.644 22.39 47.6122 22.9209C47.5803 23.4212 47.5962 24.2552 47.5644 24.5585C47.5485 24.7861 47.5165 24.9074 47.3734 24.9074C47.2459 24.9074 47.2141 24.7861 47.2141 24.5739C47.1982 24.1036 46.991 23.5729 46.5929 23.1785C46.0674 22.6479 44.8251 22.2384 43.3597 22.2384C41.9742 22.2384 41.0663 22.5722 40.3656 23.1785C39.2031 24.1946 38.9004 25.6352 38.9004 27.1062C38.9004 30.7155 41.7831 32.505 43.9172 32.505C45.3347 32.505 46.1949 32.3533 46.8317 31.6556C47.1025 31.3677 47.3095 30.9279 47.3734 30.6547C47.4211 30.4122 47.4529 30.3516 47.5803 30.3516C47.6919 30.3516 47.7237 30.4578 47.7237 30.5792C47.7237 30.7609 47.5326 32.0803 47.3734 32.5958C47.2936 32.8537 47.23 32.9294 46.9592 33.0358C46.3221 33.2783 45.1118 33.3843 44.0924 33.3843C41.9104 33.3843 40.0789 32.9294 38.6296 31.7313Z" fill="#121212"/>
<path fill-rule="evenodd" clip-rule="evenodd" d="M52.7929 29.8619C52.7929 29.1286 52.6731 28.8419 52.4939 28.4435C52.404 28.2361 50.6085 25.2556 50.1447 24.5382C49.8156 24.0441 49.5462 23.7253 49.2918 23.5818C49.1272 23.4861 48.9027 23.4063 48.7381 23.4063C48.6336 23.4063 48.5437 23.3586 48.5437 23.2631C48.5437 23.1673 48.6336 23.1355 48.7981 23.1355C49.0224 23.1355 50.01 23.1673 50.4437 23.1673C50.7281 23.1673 51.3417 23.1355 51.9402 23.1355C52.0597 23.1355 52.1346 23.1673 52.1346 23.2631C52.1346 23.3747 52.045 23.3747 51.8354 23.4384C51.7306 23.4702 51.6559 23.5339 51.6559 23.6457C51.6559 23.7572 51.7156 23.9166 51.8204 24.1078C52.0597 24.5223 53.7805 27.6943 54.0048 28.0767C54.1694 27.7579 55.7704 24.857 55.9648 24.4425C56.0997 24.1396 56.1595 23.9006 56.1595 23.7253C56.1595 23.5978 56.0997 23.4702 55.8752 23.4225C55.7554 23.3906 55.6357 23.3747 55.6357 23.2631C55.6357 23.1673 55.7106 23.1355 55.8602 23.1355C56.2942 23.1355 56.758 23.1673 57.1469 23.1673C57.4312 23.1673 58.299 23.1355 58.5537 23.1355C58.7031 23.1355 58.7927 23.1673 58.7927 23.2471C58.7927 23.3429 58.6881 23.4063 58.5385 23.4063C58.4038 23.4063 58.1643 23.4702 57.9699 23.5659C57.6856 23.7092 57.5658 23.8367 57.2818 24.2035C56.8476 24.7454 54.9625 27.9653 54.723 28.539C54.5286 29.0331 54.5585 29.4476 54.5585 29.8937V30.9777C54.5585 31.201 54.5585 31.7587 54.5883 32.3326C54.6182 32.731 54.738 32.9861 55.1271 33.0498C55.3215 33.0816 55.6058 33.0975 55.7853 33.0975C55.9349 33.0975 56.0099 33.1774 56.0099 33.2413C56.0099 33.3368 55.9051 33.3845 55.7256 33.3845C54.9025 33.3845 54.0197 33.3368 53.6607 33.3368C53.3316 33.3368 52.4488 33.3845 51.9551 33.3845C51.7754 33.3845 51.6708 33.3527 51.6708 33.2413C51.6708 33.1774 51.7306 33.0975 51.8802 33.0975C52.0597 33.0975 52.2243 33.0816 52.344 33.0498C52.6134 32.9861 52.7182 32.731 52.7481 32.3326C52.7929 31.7587 52.7929 31.201 52.7929 30.9777V29.8619Z" fill="#121212"/>
<path fill-rule="evenodd" clip-rule="evenodd" d="M62.3978 31.2393C62.3978 32.1292 62.4451 32.3992 62.8858 32.5739C63.2477 32.717 63.5624 32.7331 63.8772 32.7331C64.6169 32.7331 65.5768 32.3196 65.5768 30.8261C65.5768 30.2066 65.3092 29.1419 64.2707 28.427C63.9874 28.2202 63.6098 28.0772 63.0746 28.0772H62.4766C62.4294 28.0772 62.3978 28.0931 62.3978 28.1726V31.2393ZM62.3978 27.2667C62.3978 27.378 62.4451 27.3939 62.4925 27.4097C62.6182 27.4415 62.8227 27.4573 63.1377 27.4573C63.5939 27.4573 63.9874 27.4097 64.2236 27.2191C64.5855 26.9331 64.8528 26.4405 64.8528 25.789C64.8528 24.8832 64.3179 23.7551 63.1218 23.7551C62.933 23.7551 62.6656 23.7551 62.5237 23.7868C62.4294 23.8027 62.3978 23.8664 62.3978 24.0092V27.2667ZM60.6037 27.0445C60.6037 24.9947 60.6037 24.6132 60.5878 24.1841C60.5566 23.7235 60.4306 23.5805 59.9897 23.4533C59.8797 23.4216 59.6436 23.4055 59.4391 23.4055C59.2974 23.4055 59.2029 23.3579 59.2029 23.2627C59.2029 23.1672 59.3131 23.1355 59.5176 23.1355C60.2416 23.1355 61.123 23.1672 61.3904 23.1672C62.0829 23.1672 62.9955 23.1355 63.4676 23.1355C65.9698 23.1355 66.4107 24.4384 66.4107 25.1533C66.4107 26.2024 65.6396 27.0125 64.8525 27.5212C65.9858 27.8866 67.4021 28.8558 67.4021 30.4448C67.4021 31.8907 66.2688 33.3845 63.7195 33.3845C63.5621 33.3845 63.09 33.3684 62.6179 33.3367C62.146 33.3208 61.658 33.3049 61.4377 33.3049C61.2801 33.3049 60.9811 33.3208 60.6509 33.3208C60.3204 33.3367 59.974 33.3525 59.6909 33.3525C59.5176 33.3525 59.4231 33.3049 59.4231 33.2097C59.4231 33.146 59.4705 33.0665 59.6436 33.0665C59.8481 33.0665 60.0057 33.0506 60.1314 33.0189C60.4147 32.9554 60.4935 32.7011 60.5406 32.304C60.6037 31.7318 60.6037 30.6671 60.6037 29.4279V27.0445Z" fill="#121212"/>
<path fill-rule="evenodd" clip-rule="evenodd" d="M69.5558 27.1126C69.5558 25.0848 69.5558 24.7074 69.5408 24.2829C69.5109 23.8273 69.391 23.6858 68.9713 23.56C68.8663 23.5286 68.6416 23.5127 68.4466 23.5127C68.3119 23.5127 68.2217 23.4656 68.2217 23.3714C68.2217 23.277 68.3269 23.2456 68.5217 23.2456C69.2112 23.2456 70.0503 23.277 70.4249 23.277C70.8446 23.277 73.7673 23.2927 74.0221 23.277C74.2618 23.2613 74.4718 23.2142 74.5765 23.1985C74.6514 23.1828 74.7264 23.1355 74.7865 23.1355C74.8613 23.1355 74.8763 23.1985 74.8763 23.2613C74.8763 23.3557 74.8015 23.5127 74.7713 24.1257C74.7566 24.2675 74.7264 24.8489 74.6965 25.0061C74.6815 25.0689 74.6514 25.2263 74.5466 25.2263C74.4568 25.2263 74.4416 25.1635 74.4416 25.0532C74.4416 24.959 74.4267 24.7231 74.3518 24.5661C74.2469 24.3302 74.1419 24.1417 73.4825 24.0786C73.2576 24.0472 71.684 24.0159 71.4142 24.0159C71.3543 24.0159 71.3242 24.0629 71.3242 24.1417V27.4427C71.3242 27.5211 71.3391 27.5841 71.4142 27.5841C71.7142 27.5841 73.4224 27.5841 73.7224 27.5525C74.0369 27.5211 74.2169 27.474 74.3518 27.3482C74.4568 27.2538 74.5017 27.1754 74.5616 27.1754C74.6217 27.1754 74.6665 27.2384 74.6665 27.3169C74.6665 27.3953 74.6366 27.6155 74.5616 28.2914C74.5316 28.5587 74.5017 29.093 74.5017 29.1874C74.5017 29.2975 74.4865 29.4861 74.3666 29.4861C74.2768 29.4861 74.2469 29.4388 74.2469 29.376C74.2319 29.2345 74.2319 29.0616 74.2017 28.8888C74.1269 28.6215 73.9621 28.4172 73.4673 28.3699C73.2279 28.3385 71.7289 28.3071 71.3992 28.3071C71.3391 28.3071 71.3242 28.3699 71.3242 28.4486V29.5175C71.3242 29.9732 71.3094 31.1051 71.3242 31.4982C71.3543 32.4097 71.7591 32.6142 73.1079 32.6142C73.4526 32.6142 74.0072 32.5983 74.3518 32.4414C74.6815 32.2839 74.8314 32.0012 74.9214 31.4509C74.9513 31.3096 74.9813 31.2466 75.0713 31.2466C75.176 31.2466 75.191 31.4195 75.191 31.5608C75.191 31.8595 75.0862 32.7714 75.0112 33.0387C74.9214 33.3845 74.8015 33.3845 74.3069 33.3845C73.3177 33.3845 72.5232 33.3686 71.879 33.3372C71.2344 33.3215 70.7399 33.3058 70.3501 33.3058C70.2002 33.3058 69.9154 33.3215 69.6007 33.3215C69.286 33.3372 68.9561 33.3529 68.6865 33.3529C68.5217 33.3529 68.4319 33.3058 68.4319 33.2116C68.4319 33.1486 68.4768 33.0699 68.6416 33.0699C68.8361 33.0699 68.9862 33.0542 69.1062 33.0228C69.376 32.96 69.4508 32.7084 69.496 32.3156C69.5558 31.7496 69.5558 30.6963 69.5558 29.4704V27.1126Z" fill="#121212"/>
<path fill-rule="evenodd" clip-rule="evenodd" d="M80.8156 28.1087C80.8156 28.2522 80.847 28.2999 80.9416 28.3479C81.2408 28.4436 81.65 28.4752 81.9964 28.4752C82.5475 28.4752 82.7367 28.4275 82.9727 28.2522C83.3977 27.9493 83.87 27.3597 83.87 26.2437C83.87 24.331 82.579 23.8369 81.7603 23.8369C81.414 23.8369 81.0831 23.8528 80.9416 23.8849C80.847 23.9167 80.8156 23.9644 80.8156 24.0761V28.1087ZM79.0522 27.0567C79.0522 25.0005 79.0522 24.6178 79.0365 24.1874C79.005 23.7253 78.879 23.5818 78.4381 23.4543C78.3278 23.4225 78.0918 23.4063 77.8869 23.4063C77.7454 23.4063 77.6509 23.3586 77.6509 23.2631C77.6509 23.1673 77.7612 23.1355 77.9658 23.1355C78.6901 23.1355 79.5717 23.1673 79.8552 23.1673C80.3275 23.1673 81.5871 23.1355 82.0123 23.1355C82.8939 23.1355 83.9017 23.2153 84.6416 23.7092C85.0353 23.9802 85.618 24.6655 85.618 25.5742C85.618 26.5785 85.051 27.471 83.6969 28.5708C84.925 30.1011 85.9012 31.3283 86.7356 32.173C87.5071 32.9541 87.9954 33.018 88.2158 33.0659C88.3575 33.0975 88.4361 33.0975 88.5466 33.0975C88.6567 33.0975 88.7198 33.1774 88.7198 33.2413C88.7198 33.3527 88.625 33.3845 88.4518 33.3845H87.1293C86.3578 33.3845 85.98 33.3049 85.618 33.1137C85.0196 32.8108 84.5001 32.173 83.7286 31.1211C83.1774 30.3878 82.5947 29.4792 82.4216 29.2723C82.3427 29.1925 82.2643 29.1766 82.1695 29.1766L80.9259 29.1447C80.8628 29.1447 80.8156 29.1766 80.8156 29.2562V29.4476C80.8156 30.7069 80.8313 31.7587 80.8944 32.3326C80.9416 32.731 81.0045 32.9861 81.4297 33.0498C81.6343 33.0816 81.9335 33.0975 82.1067 33.0975C82.2169 33.0975 82.2798 33.1774 82.2798 33.2413C82.2798 33.3368 82.1695 33.3845 81.9964 33.3845C81.1936 33.3845 80.0441 33.3368 79.8392 33.3368C79.5717 33.3368 78.6901 33.3845 78.139 33.3845C77.9658 33.3845 77.8714 33.3368 77.8714 33.2413C77.8714 33.1774 77.9186 33.0975 78.0918 33.0975C78.2964 33.0975 78.4539 33.0816 78.5799 33.0498C78.8633 32.9861 78.9422 32.731 78.9893 32.3326C79.0522 31.7587 79.0522 30.6907 79.0522 29.4476V27.0567Z" fill="#121212"/>
<path fill-rule="evenodd" clip-rule="evenodd" d="M91.781 21.7564L89.522 21.8183C88.6426 21.8491 88.2786 21.9262 88.0513 22.2658C87.8997 22.4976 87.8237 22.6828 87.7937 22.8064C87.7632 22.9299 87.7178 22.9916 87.6269 22.9916C87.5207 22.9916 87.4902 22.9145 87.4902 22.7447C87.4902 22.4976 87.7783 21.0925 87.8088 20.9692C87.8542 20.7683 87.8997 20.6758 87.9907 20.6758C88.1118 20.6758 88.2637 20.83 88.6426 20.861C89.0823 20.9073 89.6584 20.9381 90.1589 20.9381H96.1623C96.6477 20.9381 96.9812 20.8919 97.2087 20.861C97.436 20.8145 97.5573 20.7837 97.6179 20.7837C97.7241 20.7837 97.7392 20.8762 97.7392 21.1079C97.7392 21.4322 97.6938 22.4976 97.6938 22.8989C97.6787 23.0535 97.6482 23.146 97.5573 23.146C97.436 23.146 97.4057 23.0689 97.3906 22.8374L97.3755 22.6674C97.3452 22.2658 96.9358 21.8337 95.5864 21.8026L93.676 21.7564V28.0869C93.676 29.5076 93.676 30.7274 93.7519 31.3911C93.7973 31.8234 93.8884 32.1633 94.3432 32.225C94.5556 32.256 94.8891 32.2867 95.1164 32.2867C95.2832 32.2867 95.3589 32.3331 95.3589 32.4102C95.3589 32.5184 95.2378 32.5646 95.0708 32.5646C94.0703 32.5646 93.1152 32.5184 92.6907 32.5184C92.3418 32.5184 91.3867 32.5646 90.7805 32.5646C90.5832 32.5646 90.477 32.5184 90.477 32.4102C90.477 32.3331 90.5378 32.2867 90.7197 32.2867C90.9472 32.2867 91.1291 32.256 91.2654 32.225C91.5688 32.1633 91.6597 31.8234 91.7051 31.3759C91.781 30.7274 91.781 29.5076 91.781 28.0869V21.7564Z" fill="#121212"/>
<path fill-rule="evenodd" clip-rule="evenodd" d="M100.303 27.1126C100.303 25.0848 100.303 24.7074 100.288 24.2829C100.258 23.8273 100.138 23.6858 99.7184 23.56C99.6136 23.5286 99.3887 23.5127 99.1937 23.5127C99.059 23.5127 98.969 23.4656 98.969 23.3714C98.969 23.277 99.074 23.2456 99.2687 23.2456C99.9583 23.2456 100.797 23.277 101.172 23.277C101.592 23.277 104.514 23.2927 104.769 23.277C105.009 23.2613 105.219 23.2142 105.324 23.1985C105.399 23.1828 105.474 23.1355 105.534 23.1355C105.609 23.1355 105.623 23.1985 105.623 23.2613C105.623 23.3557 105.549 23.5127 105.519 24.1257C105.504 24.2675 105.474 24.8489 105.444 25.0061C105.429 25.0689 105.399 25.2263 105.294 25.2263C105.204 25.2263 105.189 25.1635 105.189 25.0532C105.189 24.959 105.174 24.7231 105.099 24.5661C104.994 24.3302 104.889 24.1417 104.23 24.0786C104.005 24.0472 102.431 24.0159 102.161 24.0159C102.101 24.0159 102.071 24.0629 102.071 24.1417V27.4427C102.071 27.5211 102.086 27.5841 102.161 27.5841C102.461 27.5841 104.17 27.5841 104.469 27.5525C104.784 27.5211 104.964 27.474 105.099 27.3482C105.204 27.2538 105.249 27.1754 105.309 27.1754C105.369 27.1754 105.414 27.2384 105.414 27.3169C105.414 27.3953 105.384 27.6155 105.309 28.2914C105.279 28.5587 105.249 29.093 105.249 29.1874C105.249 29.2975 105.234 29.4861 105.114 29.4861C105.024 29.4861 104.994 29.4388 104.994 29.376C104.979 29.2345 104.979 29.0616 104.949 28.8888C104.874 28.6215 104.709 28.4172 104.215 28.3699C103.975 28.3385 102.476 28.3071 102.146 28.3071C102.086 28.3071 102.071 28.3699 102.071 28.4486V29.5175C102.071 29.9732 102.057 31.1051 102.071 31.4982C102.101 32.4097 102.506 32.6142 103.855 32.6142C104.2 32.6142 104.754 32.5983 105.099 32.4414C105.429 32.2839 105.578 32.0012 105.668 31.4509C105.698 31.3096 105.729 31.2466 105.818 31.2466C105.923 31.2466 105.938 31.4195 105.938 31.5608C105.938 31.8595 105.833 32.7714 105.758 33.0387C105.668 33.3845 105.549 33.3845 105.054 33.3845C104.065 33.3845 103.27 33.3686 102.626 33.3372C101.981 33.3215 101.487 33.3058 101.097 33.3058C100.947 33.3058 100.663 33.3215 100.348 33.3215C100.033 33.3372 99.7034 33.3529 99.4336 33.3529C99.2687 33.3529 99.179 33.3058 99.179 33.2116C99.179 33.1486 99.2238 33.0699 99.3887 33.0699C99.5837 33.0699 99.7333 33.0542 99.8533 33.0228C100.123 32.96 100.198 32.7084 100.243 32.3156C100.303 31.7496 100.303 30.6963 100.303 29.4704V27.1126Z" fill="#121212"/>
<path fill-rule="evenodd" clip-rule="evenodd" d="M110.732 27.6624H110.794C111.257 27.1522 113.236 25.144 113.638 24.6815C114.025 24.2353 114.318 23.9166 114.318 23.6773C114.318 23.5339 114.257 23.4384 114.133 23.4063C114.009 23.3747 113.948 23.3429 113.948 23.2631C113.948 23.1673 114.025 23.1355 114.164 23.1355C114.458 23.1355 115.199 23.1673 115.571 23.1673C115.988 23.1673 116.746 23.1355 117.163 23.1355C117.302 23.1355 117.395 23.1673 117.395 23.2631C117.395 23.3586 117.317 23.4063 117.194 23.4063C116.993 23.4063 116.653 23.4702 116.406 23.5659C115.973 23.7253 115.54 24.0121 114.968 24.57C114.535 24.9843 112.51 26.961 112.092 27.4551C112.572 28.0926 115.246 30.9618 115.772 31.4718C116.374 32.0298 116.9 32.6194 117.627 32.9222C118.029 33.0975 118.307 33.0975 118.461 33.0975C118.57 33.0975 118.647 33.1614 118.647 33.2413C118.647 33.3368 118.57 33.3845 118.322 33.3845H117.132C116.73 33.3845 116.483 33.3845 116.189 33.3527C115.462 33.289 115.014 33.002 114.427 32.4759C113.839 31.95 111.227 28.8257 110.933 28.4114L110.794 28.2202H110.732V29.4476C110.732 30.6907 110.732 31.7587 110.763 32.3483C110.794 32.731 110.917 32.9861 111.257 33.0498C111.443 33.0816 111.752 33.0975 111.922 33.0975C112.03 33.0975 112.108 33.1774 112.108 33.2413C112.108 33.3368 112 33.3845 111.845 33.3845C111.087 33.3845 110.114 33.3368 109.774 33.3368C109.464 33.3368 108.599 33.3845 108.057 33.3845C107.887 33.3845 107.795 33.3368 107.795 33.2413C107.795 33.1774 107.841 33.0975 108.011 33.0975C108.212 33.0975 108.367 33.0816 108.49 33.0498C108.769 32.9861 108.846 32.731 108.892 32.3326C108.954 31.7587 108.954 30.6907 108.954 29.4476V27.0567C108.954 25.0005 108.954 24.6178 108.939 24.1874C108.908 23.7253 108.784 23.5818 108.351 23.4543C108.243 23.4225 108.011 23.4063 107.81 23.4063C107.671 23.4063 107.578 23.3586 107.578 23.2631C107.578 23.1673 107.687 23.1355 107.887 23.1355C108.599 23.1355 109.464 23.1673 109.789 23.1673C110.114 23.1673 111.087 23.1355 111.536 23.1355C111.737 23.1355 111.83 23.1673 111.83 23.2631C111.83 23.3586 111.752 23.4063 111.644 23.4063C111.505 23.4063 111.428 23.4225 111.257 23.4543C110.887 23.5182 110.778 23.7092 110.747 24.1874C110.732 24.6178 110.732 25.0005 110.732 27.0567V27.6624Z" fill="#121212"/>
</svg>
